# xmcd CD database file
#
# Track frame offsets:
#	150
#	14450
#	29800
#	46575
#	67050
#	85975
#	104462
#	120025
#	133450
#	149125
#	164500
#	178137
#	192200
#
# Disc length: 2777 seconds
#
# Revision: 1
# Processed by: cddbd v1.5.2PL0 Copyright (c) Steve Scherf et al.
# Submitted via: CDex 1.70beta2
#
DISCID=c20ad70d
DTITLE=Cai Qin (蔡琴) - Cai Qin - 蔡琴（3）
DYEAR=1998
DGENRE=Pop
TTITLE0=庭院深深
TTITLE1=绿岛小夜曲
TTITLE2=假装我们还相恋
TTITLE3=初恋女
TTITLE4=秋瑾
TTITLE5=明日之歌
TTITLE6=重回苏莲托
TTITLE7=昨夜之灯
TTITLE8=希望还能遇见你
TTITLE9=怎么能
TTITLE10=恋痕
TTITLE11=白发吟
TTITLE12=船
EXTD=YEAR: 1998
EXTT0=
EXTT1=
EXTT2=
EXTT3=
EXTT4=
EXTT5=
EXTT6=
EXTT7=
EXTT8=
EXTT9=
EXTT10=
EXTT11=
EXTT12=
PLAYORDER=
